<svg width="489" height="885" viewBox="0 0 489 885" fill="none" xmlns="http://www.w3.org/2000/svg">
<path d="M0 13.1348C0 5.95506 5.8203 0.134766 13 0.134766H475.902C483.082 0.134766 488.902 5.95506 488.902 13.1348V884.184H0V13.1348Z" fill="url(#paint0_linear_2057_1708)"/>
<rect x="85.5" y="523.153" width="124.032" height="259.392" fill="#00162F"/>
<rect x="281.781" y="524.212" width="124.032" height="259.392" fill="#00162F"/>
<path d="M196.891 537.446L209.535 523.153" stroke="black" stroke-width="3"/>
<path d="M393.172 538.505L405.816 524.212" stroke="black" stroke-width="3"/>
<path d="M86.7031 783.604L101.153 766.664" stroke="black" stroke-width="3"/>
<path d="M282.992 784.663L297.443 767.723" stroke="black" stroke-width="3"/>
<path d="M207.133 783.604L193.887 766.664" stroke="black" stroke-width="3"/>
<path d="M403.406 784.663L390.16 767.723" stroke="black" stroke-width="3"/>
<path d="M99.9531 540.093L86.707 523.153" stroke="black" stroke-width="3"/>
<path d="M296.234 541.152L282.988 524.212" stroke="black" stroke-width="3"/>
<rect x="98.75" y="535.858" width="98.7438" height="235.041" fill="#001022"/>
<rect x="295.031" y="536.917" width="98.7438" height="235.041" fill="#001022"/>
<path d="M85.5 214.289C85.5 125.836 157.205 54.1309 245.658 54.1309V54.1309C334.11 54.1309 405.815 125.836 405.815 214.289V456.453H85.5V214.289Z" fill="url(#paint1_linear_2057_1708)"/>
<line x1="85.9062" y1="410.504" x2="419.912" y2="410.504" stroke="#000C1A" stroke-width="5"/>
<line x1="248.406" y1="456.413" x2="248.406" y2="7.95389" stroke="#000C1A" stroke-width="9"/>
<line x1="329.906" y1="456.413" x2="329.906" y2="7.95389" stroke="#000C1A" stroke-width="6"/>
<line x1="159.906" y1="456.413" x2="159.906" y2="7.95389" stroke="#000C1A" stroke-width="6"/>
<line x1="85.9062" y1="353.673" x2="419.912" y2="353.673" stroke="#000C1A" stroke-width="5"/>
<line x1="85.9062" y1="296.842" x2="419.912" y2="296.842" stroke="#000C1A" stroke-width="5"/>
<line x1="85.9062" y1="241.044" x2="419.912" y2="241.044" stroke="#000C1A" stroke-width="5"/>
<line x1="85.9062" y1="184.213" x2="419.912" y2="184.213" stroke="#000C1A" stroke-width="5"/>
<line x1="85.9062" y1="129.448" x2="419.912" y2="129.448" stroke="#000C1A" stroke-width="5"/>
<line x1="78.9062" y1="75.7178" x2="412.912" y2="75.7178" stroke="#000C1A" stroke-width="5"/>
<path d="M234.53 225.715L237.001 229.99L237.29 224.995L248.051 37.905L256.425 232.268L256.612 236.591L259.104 233.052L356.817 94.3808L272.796 242.787L270.998 245.963L274.449 244.996L434.736 200.038L281.992 264.632L278.48 266.118L282.007 267.457L448.149 330.506L279.741 287.096L274.804 285.823L278.27 289.612L369.484 389.363L268.894 302.328L264.859 298.711L261.527 295.722L262.42 300.184L299.751 486.565L247.831 303.033L246.544 298.481L245.007 302.996L186.827 473.886L230.347 288.901L231.282 284.932L228.045 287.346L93.3852 387.771L213.025 279.102L215.71 276.661L212.155 276.458L42.5875 266.759L215.112 256.424L219.379 256.168L215.914 253.666L75.6193 152.331L222.757 244.828L227.096 247.557L224.885 242.858L139.345 61.1217L234.53 225.715Z" fill="#FF10B7" stroke="black" stroke-width="3"/>
<defs>
<linearGradient id="paint0_linear_2057_1708" x1="244.906" y1="702.685" x2="244.906" y2="847.185" gradientUnits="userSpaceOnUse">
<stop stop-color="#000C1A"/>
<stop offset="1"/>
</linearGradient>
<linearGradient id="paint1_linear_2057_1708" x1="447.36" y1="243.646" x2="54.4027" y2="262.81" gradientUnits="userSpaceOnUse">
<stop stop-color="#00428D"/>
<stop offset="0.949716" stop-color="#000C1A"/>
</linearGradient>
</defs>
</svg>
